<mxfile host="app.diagrams.net" agent="Mozilla/5.0 (Windows NT 10.0; Win64; x64; rv:138.0) Gecko/20100101 Firefox/138.0" version="27.0.6">
  <diagram name="Seite-1" id="wiKz8gj4ajdBrXIoUQBA">
    <mxGraphModel dx="825" dy="1195" grid="1" gridSize="10" guides="1" tooltips="1" connect="1" arrows="1" fold="1" page="1" pageScale="1" pageWidth="827" pageHeight="1169" math="0" shadow="0">
      <root>
        <mxCell id="0" />
        <mxCell id="1" parent="0" />
        <mxCell id="EQ0vNfpAgPSffgeI2K1g-18" value="" style="rounded=1;whiteSpace=wrap;html=1;fillColor=#9EEDFF;dashed=1;dashPattern=8 8;strokeColor=#919191;gradientColor=none;fillStyle=dots;labelPosition=right;verticalLabelPosition=bottom;align=left;verticalAlign=top;" vertex="1" parent="1">
          <mxGeometry x="550" y="350" width="320" height="200" as="geometry" />
        </mxCell>
        <mxCell id="EQ0vNfpAgPSffgeI2K1g-30" value="&lt;div&gt;Retrieve results,&lt;/div&gt;&lt;div&gt;Save encodings&lt;/div&gt;" style="edgeStyle=orthogonalEdgeStyle;rounded=0;orthogonalLoop=1;jettySize=auto;html=1;startArrow=classic;startFill=1;labelPosition=left;verticalLabelPosition=middle;align=right;verticalAlign=middle;" edge="1" parent="1" source="EQ0vNfpAgPSffgeI2K1g-2" target="EQ0vNfpAgPSffgeI2K1g-13">
          <mxGeometry relative="1" as="geometry" />
        </mxCell>
        <mxCell id="EQ0vNfpAgPSffgeI2K1g-2" value="&lt;div&gt;Database&lt;/div&gt;" style="dashed=0;outlineConnect=0;html=1;align=center;labelPosition=center;verticalLabelPosition=bottom;verticalAlign=top;shape=mxgraph.webicons.mongodb;gradientColor=#DFDEDE" vertex="1" parent="1">
          <mxGeometry x="432" y="140" width="102.4" height="102.4" as="geometry" />
        </mxCell>
        <mxCell id="EQ0vNfpAgPSffgeI2K1g-14" value="&lt;div&gt;HTTP&lt;/div&gt;&lt;div&gt;/&lt;/div&gt;&lt;div&gt;Websocket&lt;/div&gt;" style="edgeStyle=orthogonalEdgeStyle;rounded=0;orthogonalLoop=1;jettySize=auto;html=1;startArrow=classic;startFill=1;" edge="1" parent="1" source="EQ0vNfpAgPSffgeI2K1g-3" target="EQ0vNfpAgPSffgeI2K1g-13">
          <mxGeometry x="-0.0009" relative="1" as="geometry">
            <mxPoint as="offset" />
          </mxGeometry>
        </mxCell>
        <mxCell id="EQ0vNfpAgPSffgeI2K1g-3" value="Frontend" style="outlineConnect=0;dashed=0;verticalLabelPosition=bottom;verticalAlign=top;align=center;html=1;shape=mxgraph.aws3.android;fillColor=#8CC64F;gradientColor=none;" vertex="1" parent="1">
          <mxGeometry x="80" y="396" width="73.5" height="84" as="geometry" />
        </mxCell>
        <mxCell id="EQ0vNfpAgPSffgeI2K1g-4" value="" style="shape=image;html=1;verticalAlign=top;verticalLabelPosition=bottom;labelBackgroundColor=#ffffff;imageAspect=0;aspect=fixed;image=https://cdn1.iconfinder.com/data/icons/unicons-line-vol-3/24/docker-128.png;labelPosition=center;align=center;" vertex="1" parent="1">
          <mxGeometry x="605.5" y="385.5" width="60" height="60" as="geometry" />
        </mxCell>
        <mxCell id="EQ0vNfpAgPSffgeI2K1g-5" value="" style="shape=image;html=1;verticalAlign=top;verticalLabelPosition=bottom;labelBackgroundColor=#ffffff;imageAspect=0;aspect=fixed;image=https://cdn1.iconfinder.com/data/icons/unicons-line-vol-3/24/docker-128.png" vertex="1" parent="1">
          <mxGeometry x="685.5" y="385.5" width="129" height="129" as="geometry" />
        </mxCell>
        <mxCell id="EQ0vNfpAgPSffgeI2K1g-26" value="Distribtue and monitor work" style="edgeStyle=orthogonalEdgeStyle;rounded=0;orthogonalLoop=1;jettySize=auto;html=1;entryX=0.5;entryY=1;entryDx=0;entryDy=0;labelPosition=center;verticalLabelPosition=bottom;align=center;verticalAlign=top;" edge="1" parent="1" source="EQ0vNfpAgPSffgeI2K1g-6" target="EQ0vNfpAgPSffgeI2K1g-18">
          <mxGeometry relative="1" as="geometry" />
        </mxCell>
        <mxCell id="EQ0vNfpAgPSffgeI2K1g-6" value="Message broker" style="sketch=0;outlineConnect=0;fontColor=#232F3E;gradientColor=none;fillColor=#E7157B;strokeColor=none;dashed=0;verticalLabelPosition=bottom;verticalAlign=top;align=center;html=1;fontSize=12;fontStyle=0;aspect=fixed;pointerEvents=1;shape=mxgraph.aws4.mq_broker;" vertex="1" parent="1">
          <mxGeometry x="445" y="580" width="78" height="69" as="geometry" />
        </mxCell>
        <mxCell id="EQ0vNfpAgPSffgeI2K1g-12" value="" style="endArrow=none;dashed=1;html=1;dashPattern=1 3;strokeWidth=2;rounded=0;" edge="1" parent="1">
          <mxGeometry width="50" height="50" relative="1" as="geometry">
            <mxPoint x="270" y="60" as="sourcePoint" />
            <mxPoint x="270" y="717.5" as="targetPoint" />
          </mxGeometry>
        </mxCell>
        <mxCell id="EQ0vNfpAgPSffgeI2K1g-15" value="Add work event" style="edgeStyle=orthogonalEdgeStyle;rounded=0;orthogonalLoop=1;jettySize=auto;html=1;" edge="1" parent="1" source="EQ0vNfpAgPSffgeI2K1g-13" target="EQ0vNfpAgPSffgeI2K1g-6">
          <mxGeometry relative="1" as="geometry" />
        </mxCell>
        <mxCell id="EQ0vNfpAgPSffgeI2K1g-13" value="&lt;div&gt;API Gateway&lt;/div&gt;&lt;div&gt;(FastAPI/Python)&lt;/div&gt;" style="sketch=0;outlineConnect=0;fontColor=#232F3E;gradientColor=none;fillColor=#7AA116;strokeColor=none;dashed=0;verticalLabelPosition=bottom;verticalAlign=top;align=center;html=1;fontSize=12;fontStyle=0;aspect=fixed;pointerEvents=1;shape=mxgraph.aws4.http_protocol;" vertex="1" parent="1">
          <mxGeometry x="320" y="396" width="78" height="78" as="geometry" />
        </mxCell>
        <mxCell id="EQ0vNfpAgPSffgeI2K1g-25" value="" style="shape=image;html=1;verticalAlign=top;verticalLabelPosition=bottom;labelBackgroundColor=#ffffff;imageAspect=0;aspect=fixed;image=https://cdn1.iconfinder.com/data/icons/unicons-line-vol-3/24/docker-128.png;labelPosition=center;align=center;" vertex="1" parent="1">
          <mxGeometry x="605.5" y="454.5" width="60" height="60" as="geometry" />
        </mxCell>
        <mxCell id="EQ0vNfpAgPSffgeI2K1g-28" value="&lt;div&gt;Retrieve encodings,&lt;/div&gt;&lt;div&gt;Retrieve datasets,&lt;/div&gt;&lt;div&gt;Save results&lt;/div&gt;" style="edgeStyle=orthogonalEdgeStyle;rounded=0;orthogonalLoop=1;jettySize=auto;html=1;entryX=0.509;entryY=-0.035;entryDx=0;entryDy=0;entryPerimeter=0;startArrow=classic;startFill=1;labelPosition=center;verticalLabelPosition=top;align=center;verticalAlign=bottom;" edge="1" parent="1" source="EQ0vNfpAgPSffgeI2K1g-2" target="EQ0vNfpAgPSffgeI2K1g-18">
          <mxGeometry x="-0.0025" relative="1" as="geometry">
            <mxPoint as="offset" />
          </mxGeometry>
        </mxCell>
        <mxCell id="EQ0vNfpAgPSffgeI2K1g-31" value="&lt;font style=&quot;font-size: 18px;&quot;&gt;Backend&lt;/font&gt;" style="text;html=1;align=center;verticalAlign=middle;whiteSpace=wrap;rounded=0;" vertex="1" parent="1">
          <mxGeometry x="550" y="70" width="60" height="20" as="geometry" />
        </mxCell>
        <mxCell id="EQ0vNfpAgPSffgeI2K1g-32" value="&lt;font style=&quot;font-size: 18px;&quot;&gt;Frontend&lt;/font&gt;" style="text;html=1;align=center;verticalAlign=middle;whiteSpace=wrap;rounded=0;" vertex="1" parent="1">
          <mxGeometry x="86.75" y="70" width="60" height="20" as="geometry" />
        </mxCell>
        <mxCell id="EQ0vNfpAgPSffgeI2K1g-33" value="&lt;font&gt;Workers&lt;/font&gt;" style="text;html=1;align=center;verticalAlign=middle;whiteSpace=wrap;rounded=0;" vertex="1" parent="1">
          <mxGeometry x="580" y="320" width="60" height="20" as="geometry" />
        </mxCell>
      </root>
    </mxGraphModel>
  </diagram>
</mxfile>
